<svg width="28" height="27" viewBox="0 0 28 27" fill="none" xmlns="http://www.w3.org/2000/svg">
<g filter="url(#filter0_dddd_341_2043)">
<path fill-rule="evenodd" clip-rule="evenodd" d="M19.4948 10.9993C20.1805 10.9992 20.8525 10.8067 21.4344 10.4438C22.0162 10.0809 22.4846 9.56206 22.7864 8.94628C23.0882 8.3305 23.2112 7.64243 23.1416 6.96023C23.0719 6.27803 22.8123 5.62903 22.3923 5.08695C21.9723 4.54487 21.4087 4.13143 20.7655 3.8936C20.1224 3.65577 19.4254 3.60307 18.7537 3.74149C18.0821 3.87992 17.4627 4.20391 16.966 4.67668C16.4693 5.14945 16.1151 5.75204 15.9436 6.41602H5.74479C5.50168 6.41602 5.26852 6.51259 5.09661 6.6845C4.9247 6.85641 4.82813 7.08957 4.82813 7.33268C4.82813 7.5758 4.9247 7.80896 5.09661 7.98086C5.26852 8.15277 5.50168 8.24935 5.74479 8.24935H15.9436C16.3506 9.8306 17.7861 10.9993 19.4948 10.9993ZM17.6615 7.33268C17.6615 7.81891 17.8546 8.28523 18.1984 8.62905C18.5422 8.97286 19.0086 9.16602 19.4948 9.16602C19.981 9.16602 20.4473 8.97286 20.7912 8.62905C21.135 8.28523 21.3281 7.81891 21.3281 7.33268C21.3281 6.84645 21.135 6.38014 20.7912 6.03632C20.4473 5.6925 19.981 5.49935 19.4948 5.49935C19.0086 5.49935 18.5422 5.6925 18.1984 6.03632C17.8546 6.38014 17.6615 6.84645 17.6615 7.33268ZM4.82813 14.666C4.82724 13.7729 5.15234 12.9102 5.74239 12.2399C6.33244 11.5695 7.14687 11.1375 8.03283 11.0249C8.9188 10.9124 9.81536 11.1271 10.5543 11.6287C11.2932 12.1304 11.8236 12.8844 12.046 13.7493H22.2448C22.4879 13.7493 22.7211 13.8459 22.893 14.0178C23.0649 14.1897 23.1615 14.4229 23.1615 14.666C23.1615 14.9091 23.0649 15.1423 22.893 15.3142C22.7211 15.4861 22.4879 15.5827 22.2448 15.5827H12.046C11.8207 16.4448 11.2894 17.1955 10.5512 17.6945C9.81298 18.1935 8.91838 18.4068 8.03442 18.2946C7.15047 18.1823 6.33759 17.7522 5.74757 17.0844C5.15755 16.4167 4.83073 15.5571 4.82813 14.666ZM10.3281 14.666C10.3281 14.1798 10.135 13.7135 9.79116 13.3697C9.44734 13.0258 8.98102 12.8327 8.49479 12.8327C8.00856 12.8327 7.54225 13.0258 7.19843 13.3697C6.85461 13.7135 6.66146 14.1798 6.66146 14.666C6.66146 15.1522 6.85461 15.6186 7.19843 15.9624C7.54225 16.3062 8.00856 16.4993 8.49479 16.4993C8.98102 16.4993 9.44734 16.3062 9.79116 15.9624C10.135 15.6186 10.3281 15.1522 10.3281 14.666Z" fill="#346EF7"/>
</g>
<defs>
<filter id="filter0_dddd_341_2043" x="-1" y="0" width="30" height="30" filterUnits="userSpaceOnUse" color-interpolation-filters="sRGB">
<feFlood flood-opacity="0" result="BackgroundImageFix"/>
<feColorMatrix in="SourceAlpha" type="matrix" values="0 0 0 0 0 0 0 0 0 0 0 0 0 0 0 0 0 0 127 0" result="hardAlpha"/>
<feOffset dy="4"/>
<feGaussianBlur stdDeviation="2"/>
<feComposite in2="hardAlpha" operator="out"/>
<feColorMatrix type="matrix" values="0 0 0 0 0 0 0 0 0 0 0 0 0 0 0 0 0 0 0.25 0"/>
<feBlend mode="normal" in2="BackgroundImageFix" result="effect1_dropShadow_341_2043"/>
<feColorMatrix in="SourceAlpha" type="matrix" values="0 0 0 0 0 0 0 0 0 0 0 0 0 0 0 0 0 0 127 0" result="hardAlpha"/>
<feOffset dy="4"/>
<feGaussianBlur stdDeviation="2"/>
<feComposite in2="hardAlpha" operator="out"/>
<feColorMatrix type="matrix" values="0 0 0 0 0 0 0 0 0 0 0 0 0 0 0 0 0 0 0.25 0"/>
<feBlend mode="normal" in2="effect1_dropShadow_341_2043" result="effect2_dropShadow_341_2043"/>
<feColorMatrix in="SourceAlpha" type="matrix" values="0 0 0 0 0 0 0 0 0 0 0 0 0 0 0 0 0 0 127 0" result="hardAlpha"/>
<feOffset dy="4"/>
<feGaussianBlur stdDeviation="2"/>
<feComposite in2="hardAlpha" operator="out"/>
<feColorMatrix type="matrix" values="0 0 0 0 0 0 0 0 0 0 0 0 0 0 0 0 0 0 0.25 0"/>
<feBlend mode="normal" in2="effect2_dropShadow_341_2043" result="effect3_dropShadow_341_2043"/>
<feColorMatrix in="SourceAlpha" type="matrix" values="0 0 0 0 0 0 0 0 0 0 0 0 0 0 0 0 0 0 127 0" result="hardAlpha"/>
<feOffset dy="4"/>
<feGaussianBlur stdDeviation="2"/>
<feComposite in2="hardAlpha" operator="out"/>
<feColorMatrix type="matrix" values="0 0 0 0 0 0 0 0 0 0 0 0 0 0 0 0 0 0 0.25 0"/>
<feBlend mode="normal" in2="effect3_dropShadow_341_2043" result="effect4_dropShadow_341_2043"/>
<feBlend mode="normal" in="SourceGraphic" in2="effect4_dropShadow_341_2043" result="shape"/>
</filter>
</defs>
</svg>
