<svg width="40" height="40" viewBox="0 0 40 40" fill="none" xmlns="http://www.w3.org/2000/svg">
<g clip-path="url(#clip0_326_9543)">
<path d="M16.8442 30.2857L16.7044 29.1579C16.176 29.209 15.6611 29.2215 15.1209 29.1969C14.2285 29.1562 13.3749 29.0175 12.5643 28.7842L12.7467 30.2556L9.25131 38.7393C8.82393 39.7765 9.31842 40.9638 10.3556 41.3912C11.3932 41.8187 12.5803 41.3239 13.0076 40.2869L16.7063 31.3095C16.8398 30.9857 16.8873 30.6331 16.8442 30.2857Z" fill="#346EF7"/>
<path d="M22.4316 29.3566L22.1094 26.8896C20.9677 27.8493 19.6796 28.5174 18.2725 28.8824L18.3582 29.5384L16.3349 39.0923C16.1025 40.1898 16.8038 41.268 17.9013 41.5004C18.9988 41.7329 20.077 41.0315 20.3094 39.934L22.4046 30.0404C22.4522 29.8157 22.4613 29.5844 22.4316 29.3566Z" fill="#346EF7"/>
<path d="M36.9822 17.2519C36.8774 16.6932 36.34 16.3253 35.7808 16.4299L27.8474 17.9175C28.1676 18.5391 28.2656 19.2554 28.101 19.9643L36.1602 18.4531C36.7189 18.3484 37.087 17.8105 36.9822 17.2519Z" fill="#346EF7"/>
<path d="M16.6703 7.37161C18.7059 7.37161 20.3561 5.72142 20.3561 3.6858C20.3561 1.65019 18.7059 0 16.6703 0C14.6346 0 12.9845 1.65019 12.9845 3.6858C12.9845 5.72142 14.6346 7.37161 16.6703 7.37161Z" fill="#346EF7"/>
<path d="M25.4641 17.5295C24.585 17.3887 20.2723 16.6978 19.3904 16.5566L17.3876 12.163L20.0424 15.4267L21.3601 15.6378V10.9643C21.3601 9.58936 20.2455 8.47469 18.8704 8.47469H16.4672C13.9673 7.6411 11.8971 8.08836 10.5314 8.66903C10.4394 8.70814 10.3499 8.74847 10.2621 8.78953C9.95729 8.10005 9.26781 7.61862 8.46554 7.61862H7.74384V5.41588H8.55398C9.1224 5.41588 9.58321 4.95507 9.58321 4.38665C9.58321 3.81824 9.1224 3.35742 8.55398 3.35742C7.22517 3.35742 6.20413 3.35742 4.87532 3.35742C4.30691 3.35742 3.84609 3.81824 3.84609 4.38665C3.84609 4.95507 4.30682 5.41588 4.87532 5.41588H5.68546V7.61862H4.96369C3.8792 7.61862 3 8.49781 3 9.5823V18.8154C3 19.8922 3.86694 20.7662 4.94088 20.7785C4.94851 20.7786 4.95606 20.779 4.96369 20.779H6.13102C6.40448 21.5438 6.83016 22.5239 7.46706 23.5156C9.28834 26.3515 11.9527 27.9282 15.1719 28.0749C18.5323 28.2277 21.2396 26.7489 23.1395 24.1257C23.6249 23.4555 24.0051 22.782 24.2974 22.1789L22.1541 21.8355C21.0766 23.772 18.9796 26.188 15.2656 26.0186C12.7265 25.9029 10.6969 24.7043 9.23332 22.4563C8.85633 21.8772 8.56469 21.2974 8.34252 20.7791H8.46554C8.82225 20.7791 9.1564 20.6835 9.44478 20.5173C10.033 20.178 10.4293 19.5432 10.4293 18.8154V11.0345C10.8352 10.7841 11.3457 10.5305 11.9457 10.3472L11.9387 23.7384C12.8162 24.3764 13.9243 24.832 15.317 24.8956C17.7732 25.0067 19.6792 23.7705 20.9766 21.6469L17.6936 21.121C16.2876 20.8958 15.4769 19.7515 15.3543 19.1378L14.338 14.0476L16.5495 18.8993C16.7965 19.4409 17.298 19.8232 17.8864 19.9176L24.9015 21.0413C25.8598 21.1949 26.7817 20.5468 26.9385 19.5667C27.094 18.5968 26.4338 17.6848 25.4641 17.5295Z" fill="#346EF7"/>
</g>
<defs>
<clipPath id="clip0_326_9543">
<rect width="40" height="40" rx="6" fill="white"/>
</clipPath>
</defs>
</svg>
