<svg width="29" height="22" viewBox="0 0 29 22" fill="none" xmlns="http://www.w3.org/2000/svg">
<path d="M25.2188 13.5156H9.52344C8.16648 13.5156 7.0625 12.4116 7.0625 11.0547V8.48438H8.70312V11.0547C8.70312 11.507 9.07112 11.875 9.52344 11.875H11.3416C11.2481 11.6116 11.2004 11.3342 11.2005 11.0547V8.48438H12.8412V11.0547C12.8412 11.507 13.2092 11.875 13.6615 11.875H15.4797C15.3862 11.6116 15.3385 11.3342 15.3386 11.0547V8.48438H16.9792V11.0547C16.9792 11.507 17.3472 11.875 17.7995 11.875H19.6177C19.5242 11.6116 19.4765 11.3342 19.4766 11.0547V8.48438H21.1172V11.0547C21.1172 11.507 21.4852 11.875 21.9376 11.875H25.2188V6.84375H3.78125V8.53906H2.14062V5.20312H0.5V16.7969H2.14062V13.4609H3.78125V18.4375H12.0391V21.7188H25.2188V13.5156ZM26.8594 15.1562H28.5V20.0781H26.8594V15.1562ZM25.2188 4.38281C25.2188 3.02585 24.1148 1.92188 22.7578 1.92188H21.8828V0.28125H20.2422V1.92188H18.6016V0.28125H16.9609V1.92188H15.3203V0.28125H13.6797V1.92188H12.0391V0.28125H10.3984V1.92188H8.75781V0.28125H7.11719V1.92188H6.24219C4.88523 1.92188 3.78125 3.02585 3.78125 4.38281V5.20312H25.2188V4.38281Z" fill="#346EF7"/>
</svg>
