<svg width="24" height="24" viewBox="0 0 24 24" fill="none" xmlns="http://www.w3.org/2000/svg">
<g clip-path="url(#clip0_326_10357)">
<path d="M20.4267 10.8256C19.9433 9.39746 18.605 8.43751 17.0965 8.43751H6.9743C5.46708 8.43751 4.1288 9.39676 3.64678 10.8167L3.41236 11.4803C4.077 11.3157 4.09927 11.25 4.92188 11.25H19.0781C20.0118 11.25 19.9021 11.2994 20.6638 11.4964L20.4267 10.8256ZM5.50073 0.285334C5.23706 -0.0951035 4.60669 -0.0951035 4.34302 0.285287C3.88298 0.952037 2.8125 2.59862 2.8125 3.49744C2.8125 4.6606 3.75872 5.60682 4.92188 5.60682C6.08503 5.60682 7.03125 4.6606 7.03125 3.49744C7.03125 2.59862 5.96077 0.952037 5.50073 0.285334ZM19.657 0.285334C19.3933 -0.0950566 18.763 -0.0950566 18.4993 0.285334C18.0392 0.952037 16.9688 2.59862 16.9688 3.49744C16.9688 4.6606 17.915 5.60682 19.0781 5.60682C20.2413 5.60682 21.1875 4.6606 21.1875 3.49744C21.1875 2.59862 20.117 0.952037 19.657 0.285334ZM12.5789 0.285334C12.3152 -0.0950566 11.6849 -0.0950566 11.4212 0.285334C10.9611 0.952037 9.89062 2.59862 9.89062 3.49744C9.89062 4.6606 10.8368 5.60682 12 5.60682C13.1632 5.60682 14.1094 4.6606 14.1094 3.49744C14.1094 2.59862 13.0389 0.952037 12.5789 0.285334ZM19.0781 12.6563H4.92188C4.80933 12.6563 4.31719 12.6843 4.23281 12.7266C1.84219 13.064 0 15.1969 0 17.6719C0 19.3717 1.20848 20.7905 2.8125 21.1165V21.8906C2.8125 23.0538 3.75872 24 4.92188 24H6.32812C7.49128 24 8.4375 23.0538 8.4375 21.8906V21.1875H15.5625V21.8906C15.5625 23.0538 16.5087 24 17.6719 24H19.0781C20.2413 24 21.1875 23.0538 21.1875 21.8906V21.1165C22.7915 20.7905 24 19.3717 24 17.6719C24 14.913 21.7182 12.6563 19.0781 12.6563ZM4.21875 18.375C3.44353 18.375 2.8125 17.744 2.8125 16.9688C2.8125 16.1935 3.44353 15.5625 4.21875 15.5625C4.99397 15.5625 5.625 16.1935 5.625 16.9688C5.625 17.744 4.99397 18.375 4.21875 18.375ZM12.7031 19.7813H11.2969V18.375H12.7031V19.7813ZM15.1406 16.0265C14.7468 16.6172 14.0532 16.9688 13.3359 16.9688H10.7343C10.0172 16.9688 9.32344 16.6172 8.92964 16.0265C8.45901 15.3297 8.08102 14.6011 7.53745 14.0578H16.5328C15.9893 14.6013 15.6112 15.3296 15.1406 16.0265ZM19.7812 18.375C19.006 18.375 18.375 17.744 18.375 16.9688C18.375 16.1935 19.006 15.5625 19.7812 15.5625C20.5565 15.5625 21.1875 16.1935 21.1875 16.9688C21.1875 17.744 20.5565 18.375 19.7812 18.375Z" fill="#346EF7"/>
</g>
<defs>
<clipPath id="clip0_326_10357">
<rect width="24" height="24" fill="white"/>
</clipPath>
</defs>
</svg>
