<svg width="28" height="28" viewBox="0 0 28 28" fill="none" xmlns="http://www.w3.org/2000/svg">
<path d="M23.8312 12.6299C23.2672 10.9637 21.7059 9.84376 19.9459 9.84376H8.13668C6.37826 9.84376 4.81693 10.9629 4.25458 12.6195L3.98109 13.3937C4.7565 13.2016 4.78248 13.125 5.74219 13.125H22.2578C23.3471 13.125 23.2191 13.1826 24.1077 13.4125L23.8312 12.6299ZM6.41752 0.33289C6.10991 -0.110954 5.37447 -0.110954 5.06685 0.332835C4.53015 1.11071 3.28125 3.03172 3.28125 4.08035C3.28125 5.43737 4.38517 6.54129 5.74219 6.54129C7.0992 6.54129 8.20312 5.43737 8.20312 4.08035C8.20312 3.03172 6.95423 1.11071 6.41752 0.33289ZM22.9331 0.33289C22.6255 -0.110899 21.8902 -0.110899 21.5825 0.33289C21.0458 1.11071 19.7969 3.03172 19.7969 4.08035C19.7969 5.43737 20.9008 6.54129 22.2578 6.54129C23.6148 6.54129 24.7188 5.43737 24.7188 4.08035C24.7188 3.03172 23.4699 1.11071 22.9331 0.33289ZM14.6753 0.33289C14.3677 -0.110899 13.6323 -0.110899 13.3247 0.33289C12.788 1.11071 11.5391 3.03172 11.5391 4.08035C11.5391 5.43737 12.643 6.54129 14 6.54129C15.357 6.54129 16.4609 5.43737 16.4609 4.08035C16.4609 3.03172 15.212 1.11071 14.6753 0.33289ZM22.2578 14.7656H5.74219C5.61088 14.7656 5.03672 14.7984 4.93828 14.8477C2.14922 15.2414 0 17.7297 0 20.6172C0 22.6003 1.4099 24.2556 3.28125 24.636V25.5391C3.28125 26.8961 4.38517 28 5.74219 28H7.38281C8.73983 28 9.84375 26.8961 9.84375 25.5391V24.7188H18.1562V25.5391C18.1562 26.8961 19.2602 28 20.6172 28H22.2578C23.6148 28 24.7188 26.8961 24.7188 25.5391V24.636C26.5901 24.2556 28 22.6003 28 20.6172C28 17.3985 25.3379 14.7656 22.2578 14.7656ZM4.92188 21.4375C4.01745 21.4375 3.28125 20.7013 3.28125 19.7969C3.28125 18.8925 4.01745 18.1563 4.92188 18.1563C5.8263 18.1563 6.5625 18.8925 6.5625 19.7969C6.5625 20.7013 5.8263 21.4375 4.92188 21.4375ZM14.8203 23.0781H13.1797V21.4375H14.8203V23.0781ZM17.6641 18.6976C17.2046 19.3867 16.3954 19.7969 15.5586 19.7969H12.5234C11.6868 19.7969 10.8773 19.3867 10.4179 18.6976C9.86885 17.8846 9.42785 17.0347 8.79369 16.4008H19.2883C18.6542 17.0348 18.2131 17.8846 17.6641 18.6976ZM23.0781 21.4375C22.1737 21.4375 21.4375 20.7013 21.4375 19.7969C21.4375 18.8925 22.1737 18.1563 23.0781 18.1563C23.9825 18.1563 24.7188 18.8925 24.7188 19.7969C24.7188 20.7013 23.9825 21.4375 23.0781 21.4375Z" fill="#346EF7"/>
</svg>
