<svg width="25" height="24" viewBox="0 0 25 24" fill="none" xmlns="http://www.w3.org/2000/svg">
<path d="M17.5 4.96V12.08C17.5 14.07 16.09 14.84 14.36 13.8L13.04 13C12.74 12.82 12.26 12.82 11.96 13L10.64 13.8C8.91 14.84 7.5 14.07 7.5 12.08V4.99C7.51 3 8.51 2 10.5 2H14.5C16.48 2 17.48 2.99 17.5 4.96Z" fill="#797979"/>
<path opacity="0.4" d="M22.5 11.9V14.93C22.5 19.98 20.5 22 15.5 22H9.5C4.5 22 2.5 19.98 2.5 14.93V11.9C2.5 7.65996 3.91 5.55996 7.32 4.98996H7.5V12.08C7.5 14.07 8.91 14.84 10.64 13.8L11.96 13C12.26 12.82 12.74 12.82 13.04 13L14.36 13.8C16.09 14.84 17.5 14.07 17.5 12.08V4.95996C21.04 5.47996 22.5 7.58996 22.5 11.9Z" fill="#797979"/>
</svg>
