<svg width="293" height="16" viewBox="0 0 293 16" fill="none" xmlns="http://www.w3.org/2000/svg">
<g clip-path="url(#clip0_635_7021)">
<path d="M0.5 8C0.5 5.79086 2.29086 4 4.5 4H263.5C265.709 4 267.5 5.79086 267.5 8C267.5 10.2091 265.709 12 263.5 12H4.5C2.29086 12 0.5 10.2091 0.5 8Z" fill="#FAFAFA"/>
</g>
<g clip-path="url(#clip1_635_7021)">
<path d="M0.5 8C0.5 5.79086 2.29086 4 4.5 4H156.7C158.909 4 160.7 5.79086 160.7 8C160.7 10.2091 158.909 12 156.7 12H4.49999C2.29085 12 0.5 10.2091 0.5 8Z" fill="#346EF7"/>
</g>
<path d="M271.563 12.1193C271.205 12.1136 270.847 12.0455 270.489 11.9148C270.131 11.7841 269.804 11.5639 269.509 11.2543C269.213 10.9418 268.976 10.5199 268.797 9.98864C268.618 9.45455 268.529 8.78409 268.529 7.97727C268.529 7.20455 268.601 6.51989 268.746 5.9233C268.891 5.32386 269.101 4.8196 269.377 4.41051C269.652 3.99858 269.985 3.68608 270.374 3.47301C270.766 3.25994 271.208 3.15341 271.699 3.15341C272.188 3.15341 272.623 3.25142 273.003 3.44744C273.387 3.64062 273.699 3.91051 273.941 4.2571C274.182 4.60369 274.338 5.00284 274.409 5.45455H273.37C273.273 5.0625 273.086 4.73722 272.807 4.47869C272.529 4.22017 272.159 4.09091 271.699 4.09091C271.023 4.09091 270.49 4.38494 270.101 4.97301C269.715 5.56108 269.52 6.38636 269.517 7.44886H269.586C269.745 7.20739 269.934 7.00142 270.152 6.83097C270.374 6.65767 270.618 6.52415 270.885 6.4304C271.152 6.33665 271.435 6.28977 271.733 6.28977C272.233 6.28977 272.691 6.41477 273.105 6.66477C273.52 6.91193 273.853 7.25426 274.103 7.69176C274.353 8.12642 274.478 8.625 274.478 9.1875C274.478 9.72727 274.357 10.2216 274.115 10.6705C273.874 11.1165 273.534 11.4716 273.097 11.7358C272.662 11.9972 272.151 12.125 271.563 12.1193ZM271.563 11.1818C271.921 11.1818 272.242 11.0923 272.526 10.9134C272.813 10.7344 273.039 10.4943 273.203 10.1932C273.371 9.89205 273.455 9.55682 273.455 9.1875C273.455 8.8267 273.374 8.49858 273.212 8.20312C273.053 7.90483 272.833 7.66761 272.551 7.49148C272.273 7.31534 271.955 7.22727 271.597 7.22727C271.327 7.22727 271.076 7.28125 270.843 7.3892C270.61 7.49432 270.405 7.6392 270.229 7.82386C270.056 8.00852 269.919 8.22017 269.82 8.45881C269.721 8.6946 269.671 8.94318 269.671 9.20455C269.671 9.55114 269.752 9.875 269.914 10.1761C270.078 10.4773 270.303 10.7202 270.587 10.9048C270.874 11.0895 271.199 11.1818 271.563 11.1818ZM279 12.1193C278.358 12.1193 277.811 11.9446 277.359 11.5952C276.908 11.2429 276.563 10.733 276.324 10.0653C276.085 9.39489 275.966 8.58523 275.966 7.63636C275.966 6.69318 276.085 5.88778 276.324 5.22017C276.565 4.54972 276.912 4.03835 277.364 3.68608C277.818 3.33097 278.364 3.15341 279 3.15341C279.636 3.15341 280.18 3.33097 280.632 3.68608C281.087 4.03835 281.433 4.54972 281.672 5.22017C281.913 5.88778 282.034 6.69318 282.034 7.63636C282.034 8.58523 281.915 9.39489 281.676 10.0653C281.438 10.733 281.092 11.2429 280.641 11.5952C280.189 11.9446 279.642 12.1193 279 12.1193ZM279 11.1818C279.636 11.1818 280.131 10.875 280.483 10.2614C280.835 9.64773 281.011 8.77273 281.011 7.63636C281.011 6.88068 280.93 6.23722 280.768 5.70597C280.609 5.17472 280.379 4.76989 280.078 4.49148C279.78 4.21307 279.42 4.07386 279 4.07386C278.369 4.07386 277.876 4.38494 277.521 5.0071C277.166 5.62642 276.989 6.50284 276.989 7.63636C276.989 8.39205 277.068 9.03409 277.227 9.5625C277.386 10.0909 277.615 10.4929 277.913 10.7685C278.214 11.044 278.577 11.1818 279 11.1818ZM288.102 10.3636V9.90341C288.102 9.58523 288.168 9.29403 288.298 9.02983C288.432 8.76278 288.625 8.54972 288.878 8.39062C289.134 8.22869 289.443 8.14773 289.807 8.14773C290.176 8.14773 290.486 8.22869 290.736 8.39062C290.986 8.54972 291.175 8.76278 291.303 9.02983C291.43 9.29403 291.494 9.58523 291.494 9.90341V10.3636C291.494 10.6818 291.429 10.9744 291.298 11.2415C291.17 11.5057 290.98 11.7187 290.727 11.8807C290.477 12.0398 290.17 12.1193 289.807 12.1193C289.438 12.1193 289.126 12.0398 288.874 11.8807C288.621 11.7187 288.429 11.5057 288.298 11.2415C288.168 10.9744 288.102 10.6818 288.102 10.3636ZM288.972 9.90341V10.3636C288.972 10.6278 289.034 10.8651 289.159 11.0753C289.284 11.2827 289.5 11.3864 289.807 11.3864C290.105 11.3864 290.315 11.2827 290.438 11.0753C290.562 10.8651 290.625 10.6278 290.625 10.3636V9.90341C290.625 9.6392 290.565 9.40341 290.446 9.19602C290.327 8.9858 290.114 8.88068 289.807 8.88068C289.509 8.88068 289.294 8.9858 289.163 9.19602C289.036 9.40341 288.972 9.6392 288.972 9.90341ZM283.756 5.36932V4.90909C283.756 4.59091 283.821 4.29972 283.952 4.03551C284.085 3.76847 284.278 3.5554 284.531 3.39631C284.787 3.23437 285.097 3.15341 285.46 3.15341C285.83 3.15341 286.139 3.23437 286.389 3.39631C286.639 3.5554 286.828 3.76847 286.956 4.03551C287.084 4.29972 287.148 4.59091 287.148 4.90909V5.36932C287.148 5.6875 287.082 5.98011 286.952 6.24716C286.824 6.51136 286.634 6.72443 286.381 6.88636C286.131 7.04545 285.824 7.125 285.46 7.125C285.091 7.125 284.78 7.04545 284.527 6.88636C284.274 6.72443 284.082 6.51136 283.952 6.24716C283.821 5.98011 283.756 5.6875 283.756 5.36932ZM284.625 4.90909V5.36932C284.625 5.63352 284.688 5.87074 284.812 6.08097C284.938 6.28835 285.153 6.39205 285.46 6.39205C285.759 6.39205 285.969 6.28835 286.091 6.08097C286.216 5.87074 286.278 5.63352 286.278 5.36932V4.90909C286.278 4.64489 286.219 4.40909 286.099 4.2017C285.98 3.99148 285.767 3.88636 285.46 3.88636C285.162 3.88636 284.947 3.99148 284.817 4.2017C284.689 4.40909 284.625 4.64489 284.625 4.90909ZM284.08 12L290.08 3.27273H291.051L285.051 12H284.08Z" fill="#6D6D6D"/>
<defs>
<clipPath id="clip0_635_7021">
<rect x="0.5" y="4" width="267" height="8" rx="4" fill="white"/>
</clipPath>
<clipPath id="clip1_635_7021">
<rect x="0.5" y="4" width="160.2" height="8" rx="4" fill="white"/>
</clipPath>
</defs>
</svg>
