<svg width="20" height="20" viewBox="0 0 20 20" fill="none" xmlns="http://www.w3.org/2000/svg">
<path d="M14.0169 1.6665H5.98359C4.20859 1.6665 2.76692 3.1165 2.76692 4.88317V16.6248C2.76692 18.1248 3.84192 18.7582 5.15859 18.0332L9.22526 15.7748C9.65859 15.5332 10.3586 15.5332 10.7836 15.7748L14.8503 18.0332C16.1669 18.7665 17.2419 18.1332 17.2419 16.6248V4.88317C17.2336 3.1165 15.7919 1.6665 14.0169 1.6665Z" stroke="#242424" stroke-width="1.25" stroke-linecap="round" stroke-linejoin="round"/>
<path d="M14.0169 1.6665H5.98359C4.20859 1.6665 2.76692 3.1165 2.76692 4.88317V16.6248C2.76692 18.1248 3.84192 18.7582 5.15859 18.0332L9.22526 15.7748C9.65859 15.5332 10.3586 15.5332 10.7836 15.7748L14.8503 18.0332C16.1669 18.7665 17.2419 18.1332 17.2419 16.6248V4.88317C17.2336 3.1165 15.7919 1.6665 14.0169 1.6665Z" stroke="#242424" stroke-width="1.25" stroke-linecap="round" stroke-linejoin="round"/>
</svg>
