<svg width="28" height="28" viewBox="0 0 28 28" fill="none" xmlns="http://www.w3.org/2000/svg">
<path d="M19.2048 16.8617C18.9062 15.8649 18.0796 15.195 17.1479 15.195H10.8959C9.96498 15.195 9.1384 15.8644 8.84068 16.8555L8.69589 17.3186C9.1064 17.2037 9.12016 17.1579 9.62824 17.1579H18.3718C18.9485 17.1579 18.8807 17.1923 19.3512 17.3299L19.2048 16.8617ZM9.98577 9.5053C9.82291 9.23978 9.43356 9.23978 9.27071 9.50526C8.98657 9.97061 8.32539 11.1198 8.32539 11.7471C8.32539 12.5589 8.90982 13.2193 9.62824 13.2193C10.3467 13.2193 10.9311 12.5589 10.9311 11.7471C10.9311 11.1198 10.2699 9.97061 9.98577 9.5053ZM18.7293 9.5053C18.5665 9.23981 18.1772 9.23981 18.0143 9.5053C17.7301 9.97061 17.069 11.1198 17.069 11.7471C17.069 12.5589 17.6534 13.2193 18.3718 13.2193C19.0902 13.2193 19.6747 12.5589 19.6747 11.7471C19.6747 11.1198 19.0135 9.97061 18.7293 9.5053ZM14.3576 9.5053C14.1947 9.23981 13.8054 9.23981 13.6425 9.5053C13.3584 9.97061 12.6972 11.1198 12.6972 11.7471C12.6972 12.5589 13.2816 13.2193 14 13.2193C14.7184 13.2193 15.3029 12.5589 15.3029 11.7471C15.3029 11.1198 14.6417 9.97061 14.3576 9.5053ZM18.3718 18.1393H9.62824C9.55872 18.1393 9.25476 18.1589 9.20264 18.1884C7.72608 18.4239 6.58826 19.9125 6.58826 21.6399C6.58826 22.8262 7.33467 23.8165 8.32539 24.044V24.5843C8.32539 25.3961 8.90982 26.0565 9.62824 26.0565H10.4968C11.2152 26.0565 11.7997 25.3961 11.7997 24.5843V24.0936H16.2004V24.5843C16.2004 25.3961 16.7848 26.0565 17.5032 26.0565H18.3718C19.0902 26.0565 19.6747 25.3961 19.6747 24.5843V24.044C20.6654 23.8165 21.4118 22.8262 21.4118 21.6399C21.4118 19.7144 20.0024 18.1393 18.3718 18.1393ZM9.19396 22.1306C8.71514 22.1306 8.32539 21.6902 8.32539 21.1492C8.32539 20.6081 8.71514 20.1677 9.19396 20.1677C9.67277 20.1677 10.0625 20.6081 10.0625 21.1492C10.0625 21.6902 9.67277 22.1306 9.19396 22.1306ZM14.4343 23.1121H13.5657V22.1306H14.4343V23.1121ZM15.9398 20.4916C15.6966 20.9038 15.2682 21.1492 14.8252 21.1492H13.2183C12.7754 21.1492 12.3469 20.9038 12.1036 20.4916C11.8129 20.0052 11.5795 19.4967 11.2437 19.1175H16.7997C16.464 19.4968 16.2305 20.0052 15.9398 20.4916ZM18.8061 22.1306C18.3273 22.1306 17.9375 21.6902 17.9375 21.1492C17.9375 20.6081 18.3273 20.1677 18.8061 20.1677C19.2849 20.1677 19.6747 20.6081 19.6747 21.1492C19.6747 21.6902 19.2849 22.1306 18.8061 22.1306Z" fill="#346EF7"/>
<path d="M25.2097 10.7372C24.7093 10.7372 24.3036 10.2788 24.3036 9.71332V2.04779H3.69639V9.71345C3.69639 10.2789 3.29072 10.7373 2.79027 10.7373C2.28983 10.7373 1.88416 10.2789 1.88416 9.71345V1.0239C1.88416 0.458464 2.28983 0 2.79027 0H25.2096C25.71 0 26.1158 0.458402 26.1158 1.0239V9.71338C26.1158 10.2789 25.7101 10.7372 25.2097 10.7372Z" fill="#346EF7"/>
<path d="M25.2097 0H14.0008V2.04773H24.3036V9.71339C24.3036 10.2788 24.7093 10.7373 25.2097 10.7373C25.7102 10.7373 26.1158 10.2789 26.1158 9.71339V1.02383C26.1158 0.45834 25.7101 0 25.2097 0Z" fill="#346EF7"/>
<path d="M3.93957 7.46045H1.64106C0.736147 7.46045 0 8.29228 0 9.31482V26.146C0 27.1684 0.736147 28.0004 1.64106 28.0004H3.93963C4.84443 28.0004 5.58069 27.1685 5.58069 26.146V9.31482C5.58063 8.29228 4.84443 7.46045 3.93957 7.46045Z" fill="#346EF7"/>
<path d="M26.3589 7.46045H24.0604C23.1555 7.46045 22.4193 8.29241 22.4193 9.31482V26.146C22.4193 27.1684 23.1555 28.0004 24.0604 28.0004H26.3589C27.2637 28.0004 28 27.1685 28 26.146V9.31482C27.9999 8.29228 27.2638 7.46045 26.3589 7.46045Z" fill="#346EF7"/>
<path d="M2.79026 7.46045H1.64106C0.736147 7.46045 0 8.29228 0 9.31482V26.146C0 27.1684 0.736147 28.0004 1.64106 28.0004H2.79037V7.46045H2.79026Z" fill="#346EF7"/>
<path d="M25.2097 7.46045H24.0604C23.1555 7.46045 22.4193 8.29241 22.4193 9.31482V26.146C22.4193 27.1684 23.1555 28.0004 24.0604 28.0004H25.2097V7.46045Z" fill="#346EF7"/>
</svg>
