<svg width="24" height="24" viewBox="0 0 24 24" fill="none" xmlns="http://www.w3.org/2000/svg">
<path d="M1.98923 6.83966C2.71579 5.3256 3.74235 4.04591 5.0361 2.98185C6.78923 1.53341 8.80016 0.661533 11.0549 0.394346C13.7033 0.0802835 16.1924 0.581846 18.4939 1.95997C19.0658 2.30216 19.6002 2.69122 20.1111 3.1131C20.2377 3.21622 20.2236 3.27716 20.1158 3.38028C19.0705 4.42091 18.0252 5.46153 16.9892 6.51153C16.8674 6.63341 16.8017 6.62403 16.6705 6.5256C13.633 4.18653 9.20329 4.81935 6.93923 7.9131C6.54079 8.45685 6.21735 9.04278 5.99235 9.68028C5.9736 9.73653 5.9361 9.7881 5.90798 9.84435C5.30329 9.38497 4.69391 8.9256 4.09391 8.46153C3.39079 7.92247 2.68766 7.38341 1.98923 6.83966Z" fill="#E94335"/>
<path d="M5.90497 14.2403C6.10654 14.6856 6.27529 15.1497 6.52841 15.5669C7.59247 17.3106 9.11122 18.4309 11.1128 18.8294C12.9175 19.1903 14.6518 18.9465 16.269 18.0419C16.3253 18.0137 16.3815 17.9856 16.4331 17.9575C16.4612 17.9856 16.4847 18.0184 16.5128 18.0419C17.7222 18.9794 18.9362 19.9169 20.1456 20.8544C19.5643 21.4309 18.9034 21.895 18.2003 22.2981C16.1612 23.4606 13.9534 23.9294 11.6284 23.7512C8.73154 23.5262 6.2331 22.3825 4.1706 20.32C3.26591 19.4153 2.5206 18.3934 1.98154 17.2262C2.4831 16.8419 2.98466 16.4622 3.48622 16.0778C4.29247 15.4637 5.09872 14.8544 5.90497 14.2403Z" fill="#34A853"/>
<path d="M20.1517 20.857C18.9423 19.9195 17.7283 18.982 16.5189 18.0445C16.4908 18.0211 16.4626 17.9883 16.4392 17.9601C16.8564 17.6367 17.283 17.3226 17.6251 16.9101C18.197 16.2258 18.5767 15.4523 18.7736 14.5851C18.797 14.4773 18.7783 14.4398 18.6705 14.4445C18.6142 14.4492 18.5626 14.4445 18.5064 14.4445C16.5939 14.4445 14.6767 14.4398 12.7642 14.4492C12.5533 14.4492 12.5064 14.3929 12.5111 14.1914C12.5205 12.832 12.5205 11.4726 12.5111 10.1133C12.5111 9.93982 12.558 9.89294 12.7314 9.89294C16.2376 9.89763 19.7439 9.89763 23.2548 9.89294C23.4048 9.89294 23.4658 9.93044 23.5033 10.0898C23.7892 11.3789 23.7705 12.6726 23.597 13.9758C23.4564 15.0164 23.2033 16.0242 22.8142 16.9992C22.2376 18.4383 21.3892 19.6945 20.2736 20.7726C20.2314 20.8054 20.1892 20.8289 20.1517 20.857Z" fill="#346EF7"/>
<path d="M5.90524 14.2451C5.09899 14.8592 4.29274 15.4686 3.48649 16.0826C2.98492 16.4623 2.48336 16.8467 1.9818 17.2311C1.59274 16.5092 1.33961 15.7451 1.13336 14.9576C0.739612 13.4342 0.678675 11.8873 0.8943 10.3358C1.06305 9.11702 1.41461 7.94514 1.9818 6.84827C2.68492 7.38733 3.38336 7.93108 4.08649 8.47014C4.69117 8.9342 5.29586 9.39358 5.90055 9.85295C5.79742 10.3545 5.65211 10.8467 5.60524 11.3623C5.52086 12.2998 5.60992 13.2139 5.87711 14.1139C5.89586 14.1514 5.90055 14.1983 5.90524 14.2451Z" fill="#FABB06"/>
</svg>
