<svg width="35" height="61" viewBox="0 0 35 61" fill="none" xmlns="http://www.w3.org/2000/svg">
<path d="M8.5 0.0431484C10.3942 10.6794 24.6216 10.6395 26.5 0L8.5 0.0431484Z" fill="#346EF7"/>
<path opacity="0.4" d="M25.54 21.8202L19.78 17.7902C18.21 16.6902 15.8 16.7502 14.29 17.9202L9.27999 21.8302C8.27999 22.6102 7.48999 24.2102 7.48999 25.4702V32.3702C7.48999 34.9202 9.55999 37.0002 12.11 37.0002H22.89C25.44 37.0002 27.51 34.9302 27.51 32.3802V25.6002C27.51 24.2502 26.64 22.5902 25.54 21.8202Z" fill="#346EF7"/>
<path d="M17.5 33.75C17.09 33.75 16.75 33.41 16.75 33V30C16.75 29.59 17.09 29.25 17.5 29.25C17.91 29.25 18.25 29.59 18.25 30V33C18.25 33.41 17.91 33.75 17.5 33.75Z" fill="#346EF7"/>
<path d="M1.45881 58V49.2727H2.77557V53.0653H7.12642V49.2727H8.44744V58H7.12642V54.1946H2.77557V58H1.45881ZM13.0199 58.1321C12.4063 58.1321 11.8707 57.9915 11.4134 57.7102C10.956 57.429 10.6009 57.0355 10.348 56.5298C10.0952 56.0241 9.96875 55.4332 9.96875 54.7571C9.96875 54.0781 10.0952 53.4844 10.348 52.9759C10.6009 52.4673 10.956 52.0724 11.4134 51.7912C11.8707 51.5099 12.4063 51.3693 13.0199 51.3693C13.6335 51.3693 14.169 51.5099 14.6264 51.7912C15.0838 52.0724 15.4389 52.4673 15.6918 52.9759C15.9446 53.4844 16.071 54.0781 16.071 54.7571C16.071 55.4332 15.9446 56.0241 15.6918 56.5298C15.4389 57.0355 15.0838 57.429 14.6264 57.7102C14.169 57.9915 13.6335 58.1321 13.0199 58.1321ZM13.0241 57.0625C13.4219 57.0625 13.7514 56.9574 14.0128 56.7472C14.2741 56.5369 14.4673 56.2571 14.5923 55.9077C14.7202 55.5582 14.7841 55.1733 14.7841 54.7528C14.7841 54.3352 14.7202 53.9517 14.5923 53.6023C14.4673 53.25 14.2741 52.9673 14.0128 52.7543C13.7514 52.5412 13.4219 52.4347 13.0241 52.4347C12.6236 52.4347 12.2912 52.5412 12.027 52.7543C11.7656 52.9673 11.571 53.25 11.4432 53.6023C11.3182 53.9517 11.2557 54.3352 11.2557 54.7528C11.2557 55.1733 11.3182 55.5582 11.4432 55.9077C11.571 56.2571 11.7656 56.5369 12.027 56.7472C12.2912 56.9574 12.6236 57.0625 13.0241 57.0625ZM17.4933 58V51.4545H18.7163V52.5199H18.7972C18.9336 52.1591 19.1566 51.8778 19.4663 51.6761C19.7759 51.4716 20.1467 51.3693 20.5785 51.3693C21.016 51.3693 21.3825 51.4716 21.6779 51.6761C21.9762 51.8807 22.1964 52.1619 22.3384 52.5199H22.4066C22.5629 52.1705 22.8114 51.892 23.1523 51.6847C23.4933 51.4744 23.8995 51.3693 24.3711 51.3693C24.9648 51.3693 25.4492 51.5554 25.8242 51.9276C26.2021 52.2997 26.391 52.8608 26.391 53.6108V58H25.1168V53.7301C25.1168 53.2869 24.9961 52.9659 24.7546 52.767C24.5131 52.5682 24.2248 52.4688 23.8896 52.4688C23.4748 52.4688 23.1523 52.5966 22.9222 52.8523C22.6921 53.1051 22.5771 53.4304 22.5771 53.8281V58H21.3072V53.6491C21.3072 53.294 21.1964 53.0085 20.9748 52.7926C20.7532 52.5767 20.4648 52.4688 20.1097 52.4688C19.8683 52.4688 19.6452 52.5327 19.4407 52.6605C19.239 52.7855 19.0756 52.9602 18.9506 53.1847C18.8285 53.4091 18.7674 53.669 18.7674 53.9645V58H17.4933ZM30.9197 58.1321C30.2749 58.1321 29.7195 57.9943 29.2536 57.7188C28.7905 57.4403 28.4325 57.0497 28.1797 56.5469C27.9297 56.0412 27.8047 55.4489 27.8047 54.7699C27.8047 54.0994 27.9297 53.5085 28.1797 52.9972C28.4325 52.4858 28.7848 52.0866 29.2365 51.7997C29.6911 51.5128 30.2223 51.3693 30.8303 51.3693C31.1996 51.3693 31.5575 51.4304 31.9041 51.5526C32.2507 51.6747 32.5618 51.8665 32.8374 52.1278C33.1129 52.3892 33.3303 52.7287 33.4893 53.1463C33.6484 53.5611 33.728 54.0653 33.728 54.6591V55.1108H28.5249V54.1562H32.4794C32.4794 53.821 32.4112 53.5241 32.2749 53.2656C32.1385 53.0043 31.9467 52.7983 31.6996 52.6477C31.4553 52.4972 31.1683 52.4219 30.8388 52.4219C30.4808 52.4219 30.1683 52.5099 29.9013 52.6861C29.6371 52.8594 29.4325 53.0866 29.2876 53.3679C29.1456 53.6463 29.0746 53.9489 29.0746 54.2756V55.0213C29.0746 55.4588 29.1513 55.831 29.3047 56.1378C29.4609 56.4446 29.6783 56.679 29.9567 56.8409C30.2351 57 30.5604 57.0795 30.9325 57.0795C31.174 57.0795 31.3942 57.0455 31.593 56.9773C31.7919 56.9062 31.9638 56.8011 32.1087 56.6619C32.2536 56.5227 32.3643 56.3509 32.4411 56.1463L33.647 56.3636C33.5504 56.7187 33.3771 57.0298 33.1271 57.2969C32.88 57.5611 32.5689 57.767 32.1939 57.9148C31.8217 58.0597 31.397 58.1321 30.9197 58.1321Z" fill="#346EF7"/>
</svg>
