<svg width="28" height="29" viewBox="0 0 28 29" fill="none" xmlns="http://www.w3.org/2000/svg">
<path d="M9.8 4.29661V1.44915C9.8 1.32329 9.84917 1.20258 9.93668 1.11358C10.0242 1.02458 10.1429 0.974576 10.2667 0.974576H17.7333C17.8571 0.974576 17.9758 1.02458 18.0633 1.11358C18.1508 1.20258 18.2 1.32329 18.2 1.44915V4.29661C18.2 4.42248 18.1508 4.54319 18.0633 4.63219C17.9758 4.72119 17.8571 4.77119 17.7333 4.77119H10.2667C10.1429 4.77119 10.0242 4.72119 9.93668 4.63219C9.84917 4.54319 9.8 4.42248 9.8 4.29661ZM11.6667 5.72034H16.3333V6.66949H11.6667V5.72034ZM4.65733 14.2395L5.71573 9.66502C5.78611 9.35791 5.95523 9.08347 6.19631 8.88515C6.43739 8.68684 6.73664 8.57599 7.04667 8.57017C7.01633 8.72298 7 8.88102 7 9.04237V11.4153H7.93333V9.04237C7.93333 8.25742 8.56147 7.61864 9.33333 7.61864H18.6667C19.4385 7.61864 20.0667 8.25742 20.0667 9.04237V11.4153H21V9.04237C21 8.88102 20.9837 8.72298 20.9529 8.57064C21.263 8.57641 21.5623 8.68729 21.8034 8.88571C22.0445 9.08414 22.2136 9.35873 22.2838 9.66597L23.3422 14.2404C23.6455 15.5517 23.7995 16.8999 23.7995 18.2468C23.7995 19.194 23.5438 20.1128 23.0641 20.9201C22.3098 20.981 21.6002 21.308 21.0579 21.8445C20.516 22.3762 20.1734 23.0835 20.0891 23.8444C19.6141 23.563 19.1102 23.3355 18.5864 23.1658C18.3318 21.4627 18.2026 19.7426 18.2 18.0199V8.5678H17.2667V18.0199C17.2667 19.6563 17.3861 21.2997 17.6092 22.9214C17.188 22.8451 16.7611 22.8062 16.3333 22.8051H11.6667C11.2383 22.8051 10.8113 22.8464 10.3908 22.9214C10.6139 21.2997 10.7333 19.6563 10.7333 18.0199V8.5678H9.8V18.0199C9.8 19.7388 9.6656 21.4663 9.41267 23.1658C8.8889 23.3355 8.385 23.563 7.91 23.8444C7.82583 23.0834 7.4832 22.3762 6.9412 21.8445C6.39921 21.3086 5.69003 20.9823 4.9364 20.922C4.45487 20.1156 4.20016 19.1902 4.2 18.2468C4.2 16.8995 4.354 15.5512 4.65733 14.2395ZM25.6667 25.5757C25.667 25.9598 25.5929 26.3402 25.4485 26.6952C25.3041 27.0502 25.0923 27.3727 24.8252 27.6443C24.5581 27.9159 24.241 28.1313 23.8919 28.2782C23.5429 28.425 23.1688 28.5004 22.7911 28.5H5.20893C4.83118 28.5004 4.45706 28.4251 4.10798 28.2783C3.7589 28.1315 3.44173 27.9161 3.17462 27.6445C2.90751 27.3728 2.69571 27.0503 2.55135 26.6953C2.40699 26.3403 2.3329 25.9598 2.33333 25.5757V24.3484C2.33333 23.0129 3.34787 21.8953 4.5948 21.8574C4.90736 21.8463 5.21887 21.8998 5.51052 22.0147C5.80216 22.1295 6.06788 22.3033 6.2916 22.5256C6.51662 22.7461 6.69538 23.0108 6.81713 23.3035C6.93888 23.5962 7.00109 23.911 7 24.2288V25.178C7 26.4864 8.04673 27.5508 9.33333 27.5508H10.2667V26.6017H9.33333C8.56147 26.6017 7.93333 25.9629 7.93333 25.178V24.9521C9.02933 24.1766 10.3315 23.7588 11.6667 23.7542H16.3333C17.6619 23.7542 18.9765 24.1809 20.0667 24.9521V25.178C20.0667 25.9629 19.4385 26.6017 18.6667 26.6017H17.7333V27.5508H18.6667C19.9533 27.5508 21 26.4864 21 25.178V24.2288C21 23.5815 21.2515 22.9764 21.7089 22.5256C21.9328 22.3037 22.1986 22.1301 22.4902 22.0153C22.7818 21.9005 23.0932 21.8467 23.4057 21.8574C24.6521 21.8953 25.6667 23.0129 25.6667 24.3484V25.5757ZM23.3333 2.87288C23.9522 2.87288 24.5457 3.12288 24.9832 3.56788C25.4208 4.01288 25.6667 4.61644 25.6667 5.24576C25.6667 4.61644 25.9125 4.01288 26.3501 3.56788C26.7877 3.12288 27.3812 2.87288 28 2.87288C27.3812 2.87288 26.7877 2.62288 26.3501 2.17788C25.9125 1.73288 25.6667 1.12933 25.6667 0.5C25.6667 0.811611 25.6063 1.12017 25.4891 1.40806C25.3718 1.69595 25.1999 1.95754 24.9832 2.17788C24.5457 2.62288 23.9522 2.87288 23.3333 2.87288ZM0 7.14407C0.306418 7.14407 0.609835 7.20544 0.892928 7.32469C1.17602 7.44394 1.43325 7.61873 1.64992 7.83907C1.86659 8.05941 2.03846 8.32099 2.15572 8.60889C2.27298 8.89678 2.33333 9.20534 2.33333 9.51695C2.33333 8.88762 2.57917 8.28407 3.01675 7.83907C3.45434 7.39407 4.04783 7.14407 4.66667 7.14407C4.04783 7.14407 3.45434 6.89407 3.01675 6.44907C2.57917 6.00407 2.33333 5.40051 2.33333 4.77119C2.33333 5.0828 2.27298 5.39136 2.15572 5.67925C2.03846 5.96714 1.86659 6.22872 1.64992 6.44907C1.43325 6.66941 1.17602 6.84419 0.892928 6.96344C0.609835 7.08269 0.306418 7.14407 0 7.14407Z" fill="#346EF7"/>
</svg>
