<svg width="57" height="56" viewBox="0 0 57 56" fill="none" xmlns="http://www.w3.org/2000/svg">
<path d="M48.6158 19.7166C46.1658 8.93658 36.7625 4.08325 28.5025 4.08325C28.5025 4.08325 28.5025 4.08325 28.4792 4.08325C20.2425 4.08325 10.8158 8.91325 8.36584 19.6933C5.63584 31.7332 13.0092 41.9299 19.6825 48.3466C22.1558 50.7266 25.3292 51.9166 28.5025 51.9166C31.6758 51.9166 34.8492 50.7266 37.2992 48.3466C43.9725 41.9299 51.3458 31.7566 48.6158 19.7166ZM28.5025 31.4066C24.4425 31.4066 21.1525 28.1166 21.1525 24.0566C21.1525 19.9966 24.4425 16.7066 28.5025 16.7066C32.5625 16.7066 35.8525 19.9966 35.8525 24.0566C35.8525 28.1166 32.5625 31.4066 28.5025 31.4066Z" fill="#346EF7"/>
</svg>
