<svg width="56" height="56" viewBox="0 0 56 56" fill="none" xmlns="http://www.w3.org/2000/svg">
<path d="M47.1082 32.8063L44.4715 28.4196C43.8882 27.463 43.3749 25.6196 43.3749 24.4996V20.1363C43.3749 11.6663 36.4915 4.78296 28.0449 4.78296C19.5749 4.80629 12.6915 11.6663 12.6915 20.1363V24.4763C12.6915 25.5963 12.1782 27.4396 11.6182 28.3963L8.98153 32.783C7.97819 34.4863 7.74486 36.423 8.37486 38.103C9.00486 39.8063 10.4282 41.1596 12.2949 41.7663C14.8149 42.6063 17.3582 43.213 19.9482 43.6563C20.2049 43.703 20.4615 43.7263 20.7182 43.773C21.0449 43.8196 21.3949 43.8663 21.7449 43.913C22.3515 44.0063 22.9582 44.0763 23.5882 44.123C25.0582 44.263 26.5515 44.333 28.0449 44.333C29.5149 44.333 30.9849 44.263 32.4315 44.123C32.9682 44.0763 33.5049 44.0296 34.0182 43.9596C34.4382 43.913 34.8582 43.8663 35.2782 43.7963C35.5349 43.773 35.7915 43.7263 36.0482 43.6796C38.6615 43.2596 41.2515 42.6063 43.7715 41.7663C45.5682 41.1596 46.9449 39.8063 47.5982 38.0796C48.2515 36.3296 48.0649 34.4163 47.1082 32.8063ZM29.7482 23.333C29.7482 24.313 28.9549 25.1063 27.9749 25.1063C26.9949 25.1063 26.2015 24.313 26.2015 23.333V16.0996C26.2015 15.1196 26.9949 14.3263 27.9749 14.3263C28.9549 14.3263 29.7482 15.1196 29.7482 16.0996V23.333Z" fill="#346EF7"/>
<path d="M34.6026 46.6901C33.6226 49.3967 31.0326 51.3334 27.9992 51.3334C26.1559 51.3334 24.3359 50.5867 23.0526 49.2567C22.3059 48.5567 21.7459 47.6234 21.4193 46.6667C21.7226 46.7134 22.0259 46.7367 22.3526 46.7834C22.8892 46.8534 23.4492 46.9234 24.0092 46.9701C25.3392 47.0867 26.6926 47.1567 28.0459 47.1567C29.3759 47.1567 30.7059 47.0867 32.0126 46.9701C32.5026 46.9234 32.9926 46.9001 33.4592 46.8301C33.8326 46.7834 34.2059 46.7367 34.6026 46.6901Z" fill="#346EF7"/>
</svg>
