<svg width="38" height="38" viewBox="0 0 38 38" fill="none" xmlns="http://www.w3.org/2000/svg">
<path d="M14.7013 20.7146C14.7013 19.2469 13.3974 18.0356 11.5199 17.4906V16.3185C11.3561 16.5073 11.1174 16.6273 10.849 16.6273C10.3562 16.6273 9.9572 16.2235 9.9572 15.7259C9.9572 15.2284 10.3562 14.8246 10.849 14.8246C11.1162 14.8246 11.3561 14.9446 11.5199 15.1334V13.9174C11.5199 13.4234 10.5058 13.0458 9.25538 13.0458C8.00494 13.0458 6.99082 13.4222 6.99082 13.9174V17.4728C5.11338 17.9917 3.80832 19.1661 3.80832 20.7146C3.80832 20.8381 3.84157 20.9581 3.90451 21.0744H3.82257V37.4109H14.6882V21.0744H14.6063C14.6692 20.9581 14.7013 20.8369 14.7013 20.7146ZM36.5394 5.34363C35.2688 2.34163 31.3559 1.88682 29.2256 4.56701C26.4029 -1.28737 18.7874 2.82613 20.7433 7.68063C18.7993 7.8552 17.67 9.71601 17.898 11.4153C18.6651 13.7559 20.4084 14.751 22.4699 14.7629C20.444 15.2937 18.3789 15.1726 17.1024 13.4578L11.0758 15.7307L19.0796 19.539C20.3644 18.0998 22.3048 18.0226 24.2119 18.5213C22.7276 18.5296 21.4071 19.0498 20.4986 20.2147L20.52 20.2254C20.4191 20.3358 20.3312 20.4474 20.254 20.5591C20.2006 20.6422 20.1483 20.7277 20.0984 20.8156C19.1817 22.5588 20.9677 24.3329 22.8131 23.9458C21.1161 26.6403 24.1823 28.7362 26.3459 28.1733C25.6013 26.2638 26.5204 24.4683 27.9573 23.0148C26.9123 24.8483 26.9289 26.9086 28.6912 28.7778C30.6399 30.1458 34.1905 29.9178 34.8484 26.6569C35.3424 27.2091 36.4183 27.6271 36.9693 27.6995V5.17026L36.537 5.34363H36.5394ZM24.4174 12.1539C24.5171 10.3489 24.1668 9.24457 22.7917 8.16632C24.5706 8.80876 26.3376 8.78026 28.3183 7.60701C26.3459 9.28376 25.2474 9.87869 24.4174 12.1539ZM30.5247 15.6666C28.7019 16.1843 27.2638 18.2434 27.9431 20.3097C25.6868 18.266 27.5595 15.0657 29.7694 14.7534C29.0795 13.5873 29.0273 12.0506 30.3098 10.8893C29.4524 13.4946 31.9628 16.0893 34.3663 15.5953C33.1562 16.8861 31.5946 16.6106 30.5247 15.6666Z" fill="#346EF7"/>
</svg>
