<svg width="48" height="48" viewBox="0 0 48 48" fill="none" xmlns="http://www.w3.org/2000/svg">
<rect width="48" height="48" rx="14" fill="#F1F9FB"/>
<g clip-path="url(#clip0_326_10392)">
<path d="M22.7964 14.2654C21.3451 15.7166 20.5987 17.6014 20.542 19.5028L21.802 18.2428C23.9951 16.0497 27.5638 16.0497 29.757 18.2428C31.9501 20.436 31.9501 24.0047 29.757 26.1978L28.497 27.4577C30.3984 27.4011 32.2831 26.6547 33.7344 25.2035C36.7549 22.1829 36.7548 17.2858 33.7344 14.2654C30.714 11.2449 25.8168 11.2449 22.7964 14.2654Z" fill="#346EF7"/>
<path d="M28.7629 19.2376C27.1122 17.587 24.4473 17.5869 22.7966 19.2376L19.8136 22.2206L18.8192 21.2262L19.3164 20.7291C19.5912 20.4543 19.5912 20.0096 19.3164 19.7348L16.3332 16.7517C15.5107 15.9291 14.1726 15.9291 13.3501 16.7517C12.5277 17.5742 12.5277 18.9123 13.3501 19.7348L16.3332 22.7178C16.6081 22.9926 17.0529 22.9926 17.3276 22.7178L17.8248 22.2207L18.8192 23.2151L16.0615 25.9727C15.9223 26.1119 15.8527 26.281 15.8528 26.4799L15.8527 28.1704L14.8114 29.2116L18.7889 33.1891L19.8302 32.1478L21.5206 32.1477C21.7195 32.1478 21.8885 32.0782 22.0277 31.939L28.7629 25.2039C30.4136 23.5531 30.4135 20.8882 28.7629 19.2376ZM23.7909 22.2207C23.5125 21.9423 23.5126 21.5047 23.7909 21.2263L24.7854 20.2319C25.0638 19.9534 25.5013 19.9534 25.7798 20.2319C26.0582 20.5104 26.0582 20.9478 25.7798 21.2263L24.7854 22.2207C24.507 22.499 24.0695 22.4991 23.7909 22.2207ZM27.7684 23.215L26.7741 24.2094C26.4957 24.4878 26.0582 24.4879 25.7797 24.2094C25.5013 23.9309 25.5013 23.4934 25.7797 23.215L26.7741 22.2207C27.0525 21.9422 27.49 21.9422 27.7684 22.2207C28.047 22.4991 28.047 22.9366 27.7684 23.215ZM16.8001 35.1778L17.7945 34.1833L13.817 30.2059L12.8226 31.2003C11.7258 32.2971 11.7258 34.081 12.8226 35.1778C13.9194 36.2745 15.7033 36.2745 16.8001 35.1778Z" fill="#346EF7"/>
</g>
<defs>
<clipPath id="clip0_326_10392">
<rect width="24" height="24" fill="white" transform="translate(12 12)"/>
</clipPath>
</defs>
</svg>
