<svg width="297" height="20" viewBox="0 0 297 20" fill="none" xmlns="http://www.w3.org/2000/svg">
<rect x="0.5" y="7" width="255" height="6" rx="3" fill="#F5F5F5"/>
<rect x="0.5" y="7" width="255" height="6" rx="3" fill="#346EF7"/>
<path d="M267.956 6.32V5.324H270.212V14H269.108V6.32H267.956ZM272.088 9.572C272.088 8.196 272.312 7.124 272.76 6.356C273.208 5.58 273.992 5.192 275.112 5.192C276.224 5.192 277.004 5.58 277.452 6.356C277.9 7.124 278.124 8.196 278.124 9.572C278.124 10.972 277.9 12.06 277.452 12.836C277.004 13.612 276.224 14 275.112 14C273.992 14 273.208 13.612 272.76 12.836C272.312 12.06 272.088 10.972 272.088 9.572ZM277.044 9.572C277.044 8.876 276.996 8.288 276.9 7.808C276.812 7.32 276.624 6.928 276.336 6.632C276.056 6.336 275.648 6.188 275.112 6.188C274.568 6.188 274.152 6.336 273.864 6.632C273.584 6.928 273.396 7.32 273.3 7.808C273.212 8.288 273.168 8.876 273.168 9.572C273.168 10.292 273.212 10.896 273.3 11.384C273.396 11.872 273.584 12.264 273.864 12.56C274.152 12.856 274.568 13.004 275.112 13.004C275.648 13.004 276.056 12.856 276.336 12.56C276.624 12.264 276.812 11.872 276.9 11.384C276.996 10.896 277.044 10.292 277.044 9.572ZM279.623 9.572C279.623 8.196 279.847 7.124 280.295 6.356C280.743 5.58 281.527 5.192 282.647 5.192C283.759 5.192 284.539 5.58 284.987 6.356C285.435 7.124 285.659 8.196 285.659 9.572C285.659 10.972 285.435 12.06 284.987 12.836C284.539 13.612 283.759 14 282.647 14C281.527 14 280.743 13.612 280.295 12.836C279.847 12.06 279.623 10.972 279.623 9.572ZM284.579 9.572C284.579 8.876 284.531 8.288 284.435 7.808C284.347 7.32 284.159 6.928 283.871 6.632C283.591 6.336 283.183 6.188 282.647 6.188C282.103 6.188 281.687 6.336 281.399 6.632C281.119 6.928 280.931 7.32 280.835 7.808C280.747 8.288 280.703 8.876 280.703 9.572C280.703 10.292 280.747 10.896 280.835 11.384C280.931 11.872 281.119 12.264 281.399 12.56C281.687 12.856 282.103 13.004 282.647 13.004C283.183 13.004 283.591 12.856 283.871 12.56C284.159 12.264 284.347 11.872 284.435 11.384C284.531 10.896 284.579 10.292 284.579 9.572ZM286.918 7.28C286.918 6.736 287.082 6.304 287.41 5.984C287.738 5.656 288.158 5.492 288.67 5.492C289.182 5.492 289.602 5.656 289.93 5.984C290.258 6.304 290.422 6.736 290.422 7.28C290.422 7.832 290.258 8.272 289.93 8.6C289.602 8.92 289.182 9.08 288.67 9.08C288.158 9.08 287.738 8.92 287.41 8.6C287.082 8.272 286.918 7.832 286.918 7.28ZM293.926 5.624L289.066 14H287.986L292.846 5.624H293.926ZM288.67 6.164C288.398 6.164 288.182 6.26 288.022 6.452C287.87 6.636 287.794 6.912 287.794 7.28C287.794 7.648 287.87 7.928 288.022 8.12C288.182 8.312 288.398 8.408 288.67 8.408C288.942 8.408 289.158 8.312 289.318 8.12C289.478 7.92 289.558 7.64 289.558 7.28C289.558 6.912 289.478 6.636 289.318 6.452C289.158 6.26 288.942 6.164 288.67 6.164ZM291.514 12.344C291.514 11.792 291.678 11.356 292.006 11.036C292.334 10.708 292.754 10.544 293.266 10.544C293.778 10.544 294.194 10.708 294.514 11.036C294.842 11.356 295.006 11.792 295.006 12.344C295.006 12.888 294.842 13.324 294.514 13.652C294.194 13.98 293.778 14.144 293.266 14.144C292.754 14.144 292.334 13.984 292.006 13.664C291.678 13.336 291.514 12.896 291.514 12.344ZM293.254 11.228C292.982 11.228 292.766 11.324 292.606 11.516C292.446 11.7 292.366 11.976 292.366 12.344C292.366 12.704 292.446 12.98 292.606 13.172C292.766 13.356 292.982 13.448 293.254 13.448C293.526 13.448 293.742 13.356 293.902 13.172C294.062 12.98 294.142 12.704 294.142 12.344C294.142 11.976 294.062 11.7 293.902 11.516C293.742 11.324 293.526 11.228 293.254 11.228Z" fill="#353535"/>
</svg>
