<svg width="24" height="24" viewBox="0 0 24 24" fill="none" xmlns="http://www.w3.org/2000/svg">
<path d="M16.8223 1.99951H7.18227C5.05227 1.99951 3.32227 3.73951 3.32227 5.85951V19.9495C3.32227 21.7495 4.61227 22.5095 6.19227 21.6395L11.0723 18.9295C11.5923 18.6395 12.4323 18.6395 12.9423 18.9295L17.8223 21.6395C19.4023 22.5195 20.6923 21.7595 20.6923 19.9495V5.85951C20.6823 3.73951 18.9523 1.99951 16.8223 1.99951Z" stroke="#346EF7" stroke-width="1.5" stroke-linecap="round" stroke-linejoin="round"/>
<path d="M16.8223 1.99951H7.18227C5.05227 1.99951 3.32227 3.73951 3.32227 5.85951V19.9495C3.32227 21.7495 4.61227 22.5095 6.19227 21.6395L11.0723 18.9295C11.5923 18.6395 12.4323 18.6395 12.9423 18.9295L17.8223 21.6395C19.4023 22.5195 20.6923 21.7595 20.6923 19.9495V5.85951C20.6823 3.73951 18.9523 1.99951 16.8223 1.99951Z" fill="#346EF7" stroke="#346EF7" stroke-width="1.5" stroke-linecap="round" stroke-linejoin="round"/>
</svg>
