<svg width="20" height="20" viewBox="0 0 20 20" fill="none" xmlns="http://www.w3.org/2000/svg">
<path fill-rule="evenodd" clip-rule="evenodd" d="M13.75 1.875C12.2542 1.875 11.0417 3.08756 11.0417 4.58333C11.0417 4.74659 11.0561 4.90647 11.0838 5.06177L7.14159 7.82132C7.12155 7.83533 7.1026 7.85032 7.08473 7.86616C6.62494 7.50623 6.04585 7.29167 5.41666 7.29167C3.92089 7.29167 2.70833 8.50425 2.70833 10C2.70833 11.4957 3.92089 12.7083 5.41666 12.7083C6.04585 12.7083 6.62494 12.4937 7.08473 12.1338C7.1026 12.1497 7.12155 12.1647 7.14159 12.1787L11.0838 14.9382C11.0561 15.0935 11.0417 15.2534 11.0417 15.4167C11.0417 16.9124 12.2542 18.125 13.75 18.125C15.2457 18.125 16.4583 16.9124 16.4583 15.4167C16.4583 13.9209 15.2457 12.7083 13.75 12.7083C12.8727 12.7083 12.0927 13.1255 11.5978 13.7722L7.86504 11.1592C8.03174 10.8078 8.12499 10.4148 8.12499 10C8.12499 9.58517 8.03174 9.19217 7.86504 8.84075L11.5978 6.22775C12.0927 6.87452 12.8727 7.29167 13.75 7.29167C15.2457 7.29167 16.4583 6.07911 16.4583 4.58333C16.4583 3.08756 15.2457 1.875 13.75 1.875ZM12.2917 4.58333C12.2917 3.77792 12.9446 3.125 13.75 3.125C14.5554 3.125 15.2083 3.77792 15.2083 4.58333C15.2083 5.38875 14.5554 6.04167 13.75 6.04167C12.9446 6.04167 12.2917 5.38875 12.2917 4.58333ZM5.41666 8.54167C4.61124 8.54167 3.95833 9.19458 3.95833 10C3.95833 10.8054 4.61124 11.4583 5.41666 11.4583C6.22208 11.4583 6.87499 10.8054 6.87499 10C6.87499 9.19458 6.22208 8.54167 5.41666 8.54167ZM13.75 13.9583C12.9446 13.9583 12.2917 14.6112 12.2917 15.4167C12.2917 16.2221 12.9446 16.875 13.75 16.875C14.5554 16.875 15.2083 16.2221 15.2083 15.4167C15.2083 14.6112 14.5554 13.9583 13.75 13.9583Z" fill="#242424"/>
</svg>
