<svg width="15" height="15" viewBox="0 0 15 15" fill="none" xmlns="http://www.w3.org/2000/svg">
<path d="M6.84699 1.31428C7.11511 0.774657 7.88489 0.774659 8.15301 1.31428L9.83861 4.70684C9.94479 4.92053 10.1488 5.06876 10.3848 5.1037L14.1322 5.65845C14.7283 5.74668 14.9662 6.47879 14.5358 6.90054L11.8302 9.552C11.6598 9.71901 11.5818 9.95884 11.6215 10.1941L12.252 13.9295C12.3522 14.5237 11.7295 14.9762 11.1954 14.6972L7.83759 12.9433C7.62609 12.8329 7.37391 12.8329 7.16241 12.9433L3.80463 14.6972C3.27054 14.9762 2.64777 14.5237 2.74805 13.9295L3.37846 10.1941C3.41817 9.95884 3.34024 9.71901 3.16982 9.552L0.464186 6.90054C0.0338246 6.47879 0.271702 5.74668 0.867767 5.65845L4.61516 5.1037C4.8512 5.06876 5.05522 4.92053 5.16139 4.70684L6.84699 1.31428Z" fill="#FCAF23"/>
</svg>
