<svg width="34" height="34" viewBox="0 0 34 34" fill="none" xmlns="http://www.w3.org/2000/svg">
<path d="M17.3544 14.6547C18.005 14.6547 18.6358 14.8458 19.1768 15.2063L19.5755 15.4719C21.0686 16.4695 22.8245 17.0012 24.6203 16.9995C25.0136 16.9995 25.4028 16.9696 25.7886 16.9198C25.7859 16.682 25.7738 16.4444 25.7522 16.2075L20.2988 14.0263C20.225 13.9969 20.158 13.9527 20.1018 13.8966C20.0455 13.8405 20.0013 13.7735 19.9717 13.6998L17.7905 8.2464C17.5302 8.22296 17.267 8.20654 16.9997 8.20654C16.7324 8.20654 16.4692 8.22296 16.2083 8.2464L14.0271 13.6998C13.9975 13.7735 13.9533 13.8405 13.8971 13.8966C13.8408 13.9527 13.7738 13.9969 13.7 14.0263L8.24662 16.2075C8.22317 16.469 8.20676 16.7322 8.20676 16.9995C8.20676 17.2668 8.22317 17.53 8.24662 17.7909L13.7 19.9721C13.8495 20.0319 13.9673 20.1497 14.0271 20.2986L16.2083 25.752C16.2599 25.7567 16.3127 25.7561 16.3643 25.7596C16.3936 25.48 16.4135 25.1975 16.4135 24.9132C16.4135 23.3035 15.9416 21.7448 15.0488 20.4059L14.6209 19.7634C14.2598 19.2218 14.0693 18.591 14.0693 17.9409C14.0699 17.0698 14.4162 16.2344 15.0321 15.6183C15.648 15.0022 16.4832 14.6556 17.3544 14.6547Z" fill="#346EF7"/>
<path d="M8.48346 19.1484C8.87381 20.6844 9.67133 22.0866 10.7919 23.2072C11.9126 24.3278 13.3148 25.1254 14.8507 25.5157L13.0312 20.968L8.48346 19.1484Z" fill="#346EF7"/>
<path d="M15.0488 29.4206C15.5569 28.6565 15.9317 27.8117 16.1573 26.9223C11.0557 26.4926 7.03436 22.2104 7.03436 16.9997C7.03436 11.5047 11.5047 7.03436 16.9997 7.03436C22.3904 7.03436 26.7845 11.34 26.9492 16.6914C27.9153 16.4374 28.8328 16.0254 29.6645 15.4721L30.0631 15.2065C30.6401 14.8218 31.3242 14.6298 32.0171 14.6583C32.7101 14.6867 33.3762 14.9341 33.9197 15.3648C33.0932 6.75533 25.8214 0 16.9997 0C7.62642 0 0 7.62583 0 16.9997C0 25.6004 6.42179 32.7244 14.7206 33.8423C14.3154 33.3001 14.0883 32.6456 14.0703 31.9689C14.0524 31.2923 14.2445 30.6267 14.6203 30.0637L15.0488 29.4206ZM2.34479 19.3445H1.17239V18.1721H2.34479V19.3445ZM2.34479 16.9997H1.17239C1.17239 8.27241 8.27241 1.17239 16.9997 1.17239V2.34479C8.91898 2.34479 2.34479 8.91898 2.34479 16.9997Z" fill="#346EF7"/>
<path d="M25.516 14.8507C25.1256 13.3147 24.3281 11.9125 23.2075 10.7919C22.0869 9.67127 20.6847 8.87375 19.1487 8.4834L20.9677 13.0311L25.516 14.8507ZM33.2163 30.0713C32.1945 28.5389 31.6546 26.7557 31.6546 24.9133C31.6546 23.0709 32.1945 21.2877 33.2163 19.7554L33.6442 19.1129C33.9139 18.7063 34.0346 18.219 33.986 17.7335C33.9373 17.248 33.7223 16.7943 33.3774 16.4493C33.0324 16.1043 32.5787 15.8891 32.0933 15.8404C31.6078 15.7917 31.1205 15.9123 30.7138 16.1819L30.3152 16.4475C28.6228 17.5759 26.6538 18.1721 24.6203 18.1721C22.5868 18.1721 20.6177 17.5759 18.9254 16.4481L18.5268 16.1825C18.1202 15.9128 17.6328 15.7921 17.1474 15.8407C16.6619 15.8894 16.2082 16.1044 15.8632 16.4493C15.5181 16.7943 15.303 17.248 15.2543 17.7334C15.2055 18.2189 15.3262 18.7063 15.5958 19.1129L16.0237 19.7554C17.046 21.2877 17.5859 23.0709 17.5859 24.9133C17.5859 26.7557 17.046 28.5389 16.0243 30.0713L15.5964 30.7137C15.3647 31.0608 15.2413 31.4688 15.2417 31.8861C15.2417 33.0409 16.1726 33.9789 17.3233 33.9964H17.3438V33.9988L17.355 34C17.7735 34 18.1786 33.8774 18.5274 33.6453L18.926 33.3798C19.4741 33.0174 20.0557 32.7084 20.6629 32.4571L18.4336 30.9711C18.3532 30.9173 18.2874 30.8445 18.2418 30.7593C18.1962 30.674 18.1723 30.5789 18.1721 30.4822V28.1374C18.1721 27.1678 18.9611 26.3788 19.9307 26.3788C20.1371 26.3788 20.3328 26.421 20.5169 26.4867V22.2754C20.5169 21.3059 21.3059 20.5168 22.2755 20.5168C22.507 20.5168 22.7269 20.5643 22.9297 20.6458C23.1325 19.8984 23.8096 19.3445 24.6203 19.3445C25.431 19.3445 26.1086 19.8984 26.3109 20.6458C26.5137 20.5643 26.7335 20.5168 26.9651 20.5168C27.9346 20.5168 28.7237 21.3059 28.7237 22.2754V22.9695C28.9114 22.9001 29.1097 22.8636 29.3099 22.8616C30.2794 22.8616 31.0684 23.6507 31.0684 24.6202V31.0684C31.0684 31.2237 31.0069 31.3732 30.8967 31.4828L29.8961 32.4835V33.1236C30.0362 33.2074 30.1786 33.2877 30.3152 33.3786L30.7138 33.6441C31.1204 33.9138 31.6077 34.0346 32.0932 33.9859C32.5787 33.9373 33.0324 33.7223 33.3774 33.3773C33.7224 33.0323 33.9376 32.5787 33.9863 32.0932C34.035 31.6078 33.9144 31.1204 33.6448 30.7137L33.2163 30.0713ZM8.48346 14.8507L13.0312 13.0311L14.8501 8.4834C13.3143 8.8739 11.9123 9.67148 10.7918 10.7921C9.67127 11.9127 8.87382 13.3148 8.48346 14.8507Z" fill="#346EF7"/>
<path d="M29.896 24.6202C29.8893 24.4693 29.8246 24.3268 29.7154 24.2224C29.6062 24.1179 29.4609 24.0597 29.3098 24.0597C29.1587 24.0597 29.0135 24.1179 28.9043 24.2224C28.7951 24.3268 28.7304 24.4693 28.7236 24.6202V26.3788H27.5512V22.2754C27.5445 22.1245 27.4798 21.982 27.3706 21.8776C27.2614 21.7732 27.1161 21.7149 26.965 21.7149C26.814 21.7149 26.6687 21.7732 26.5595 21.8776C26.4503 21.982 26.3856 22.1245 26.3788 22.2754V26.3788H25.2065V21.103C25.1997 20.9521 25.135 20.8096 25.0258 20.7052C24.9166 20.6008 24.7713 20.5425 24.6203 20.5425C24.4692 20.5425 24.3239 20.6008 24.2147 20.7052C24.1055 20.8096 24.0408 20.9521 24.0341 21.103V26.3788H22.8617V22.2754C22.8549 22.1245 22.7902 21.982 22.681 21.8776C22.5718 21.7732 22.4266 21.7149 22.2755 21.7149C22.1244 21.7149 21.9791 21.7732 21.8699 21.8776C21.7607 21.982 21.696 22.1245 21.6893 22.2754V29.896H20.5169V28.1374C20.5101 27.9865 20.4454 27.844 20.3362 27.7395C20.227 27.6351 20.0818 27.5768 19.9307 27.5768C19.7796 27.5768 19.6343 27.6351 19.5251 27.7395C19.4159 27.844 19.3512 27.9865 19.3445 28.1374V30.1686L22.6008 32.3393C22.7638 32.4483 22.8617 32.6312 22.8617 32.827V33.9994H28.7236V32.2408C28.7236 32.0854 28.7852 31.936 28.8954 31.8263L29.896 30.8257V24.6202Z" fill="#346EF7"/>
</svg>
