<svg width="29" height="28" viewBox="0 0 29 28" fill="none" xmlns="http://www.w3.org/2000/svg">
<g clip-path="url(#clip0_635_7000)">
<path d="M22.7945 2.08044H9.94958V7.40714H25.5379V4.82272C25.5379 3.31049 24.3072 2.08044 22.7945 2.08044Z" fill="#CED9F9"/>
<path d="M15.5235 8.22684H0.5V3.28424C0.5 1.47314 1.97379 0 3.78552 0H8.58905C9.0665 0 9.52643 0.100616 9.94427 0.289673C10.5279 0.552643 11.0293 0.986084 11.3809 1.5524L15.5235 8.22684Z" fill="#346EF7"/>
<path d="M28.5 9.33337V25.2543C28.5 26.7684 27.2674 28 25.7526 28H3.24741C1.7326 28 0.5 26.7684 0.5 25.2543V6.58704H25.7526C27.2674 6.58704 28.5 7.819 28.5 9.33337Z" fill="#346EF7"/>
<path d="M28.5 9.33337V25.2543C28.5 26.7684 27.2674 28 25.7526 28H14.5V6.58704H25.7526C27.2674 6.58704 28.5 7.819 28.5 9.33337Z" fill="#346EF7"/>
<path d="M21.8652 17.2932C21.8652 21.3548 18.5611 24.6591 14.4999 24.6591C10.4388 24.6591 7.13464 21.3548 7.13464 17.2932C7.13464 13.2322 10.4388 9.92786 14.4999 9.92786C18.5611 9.92786 21.8652 13.2322 21.8652 17.2932Z" fill="#E7ECFC"/>
<path d="M21.8653 17.2932C21.8653 21.3548 18.5612 24.6591 14.5 24.6591V9.92786C18.5612 9.92786 21.8653 13.2322 21.8653 17.2932Z" fill="#CED9F9"/>
<path d="M16.874 17.3836C16.7204 17.5137 16.5322 17.5771 16.3457 17.5771C16.1122 17.5771 15.8802 17.4782 15.7179 17.2855L15.3203 16.8143V19.8996C15.3203 20.3525 14.9529 20.7199 14.5 20.7199C14.0471 20.7199 13.6797 20.3525 13.6797 19.8996V16.8143L13.2821 17.2855C12.9895 17.6318 12.4723 17.676 12.126 17.3836C11.7799 17.0916 11.7355 16.5742 12.0275 16.2279L13.6513 14.3029C13.863 14.0526 14.1719 13.9086 14.5 13.9086C14.8281 13.9086 15.137 14.0526 15.3487 14.3029L16.9725 16.2279C17.2645 16.5742 17.22 17.0916 16.874 17.3836Z" fill="#6C8DEF"/>
<path d="M16.874 17.3836C16.7204 17.5137 16.5322 17.5771 16.3457 17.5771C16.1122 17.5771 15.8802 17.4782 15.7179 17.2855L15.3203 16.8143V19.8996C15.3203 20.3525 14.9529 20.7199 14.5 20.7199V13.9086C14.8281 13.9086 15.137 14.0526 15.3487 14.3029L16.9725 16.2279C17.2645 16.5742 17.2201 17.0916 16.874 17.3836Z" fill="#346EF7"/>
</g>
<defs>
<clipPath id="clip0_635_7000">
<rect width="28" height="28" fill="white" transform="translate(0.5)"/>
</clipPath>
</defs>
</svg>
