<svg width="34" height="34" viewBox="0 0 34 34" fill="none" xmlns="http://www.w3.org/2000/svg">
<path d="M15.2948 3.20926C13.239 5.26514 12.1814 7.93526 12.1012 10.6289L13.8862 8.84403C16.9931 5.73709 22.0487 5.73709 25.1557 8.84403C28.2626 11.951 28.2626 17.0066 25.1557 20.1136L23.3707 21.8984C26.0643 21.8183 28.7344 20.7608 30.7905 18.7049C35.0695 14.4258 35.0694 7.48828 30.7905 3.20926C26.5115 -1.06975 19.5738 -1.06975 15.2948 3.20926Z" fill="#346EF7"/>
<path d="M23.7474 10.2526C21.4089 7.91422 17.6337 7.91408 15.2952 10.2526L11.0693 14.4785L9.66047 13.0699L10.3648 12.3656C10.7542 11.9763 10.7542 11.3463 10.3648 10.957L6.13874 6.73086C4.97351 5.56563 3.07788 5.56563 1.91265 6.73086C0.747552 7.89609 0.747552 9.79172 1.91265 10.957L6.13874 15.1829C6.52808 15.5723 7.15821 15.5723 7.54742 15.1829L8.25179 14.4787L9.66047 15.8873L5.75379 19.794C5.55656 19.9913 5.45795 20.2308 5.45808 20.5125L5.45795 22.9074L3.98286 24.3824L9.61763 30.0172L11.0927 28.5421L13.4875 28.542C13.7693 28.5421 14.0087 28.4435 14.2059 28.2463L23.7475 18.7048C26.0859 16.3663 26.0858 12.5909 23.7474 10.2526ZM16.7038 14.4787C16.3094 14.0842 16.3095 13.4643 16.7038 13.07L18.1127 11.6612C18.5071 11.2667 19.1269 11.2667 19.5213 11.6612C19.9158 12.0558 19.9158 12.6754 19.5213 13.07L18.1127 14.4787C17.7182 14.873 17.0984 14.8731 16.7038 14.4787ZM22.3386 15.8873L20.9299 17.296C20.5356 17.6904 19.9157 17.6905 19.5213 17.296C19.1268 16.9015 19.1268 16.2817 19.5213 15.8873L20.9299 14.4786C21.3244 14.0842 21.9442 14.0842 22.3386 14.4786C22.7332 14.8731 22.7332 15.4928 22.3386 15.8873ZM6.80015 32.8346L8.20883 31.4257L2.57406 25.791L1.16538 27.1998C-0.38846 28.7536 -0.38846 31.2807 1.16538 32.8346C2.71922 34.3883 5.24631 34.3883 6.80015 32.8346Z" fill="#346EF7"/>
</svg>
