<svg width="38" height="38" viewBox="0 0 38 38" fill="none" xmlns="http://www.w3.org/2000/svg">
<path d="M5 12C5 12 0 17.4965 0 21.3854C0 24.4535 1.93194 26.3854 5 26.3854C8.06806 26.3854 10 24.4535 10 21.3854C10 17.4965 5 12 5 12ZM5.55556 24.5799V23.7465C6.10789 23.7459 6.63742 23.5262 7.02798 23.1356C7.41855 22.7451 7.63825 22.2155 7.63889 21.6632H8.47222C8.4714 22.4365 8.16384 23.1779 7.61704 23.7247C7.07024 24.2715 6.32885 24.579 5.55556 24.5799Z" fill="#346EF7"/>
<path d="M19 12C19 12 14 17.4965 14 21.3854C14 24.4535 15.9319 26.3854 19 26.3854C22.0681 26.3854 24 24.4535 24 21.3854C24 17.4965 19 12 19 12ZM19.5556 24.5799V23.7465C20.1079 23.7459 20.6374 23.5262 21.028 23.1356C21.4185 22.7451 21.6382 22.2155 21.6389 21.6632H22.4722C22.4714 22.4365 22.1638 23.1779 21.617 23.7247C21.0702 24.2715 20.3289 24.579 19.5556 24.5799Z" fill="#346EF7"/>
<path d="M33 12C33 12 28 17.4965 28 21.3854C28 24.4535 29.9319 26.3854 33 26.3854C36.0681 26.3854 38 24.4535 38 21.3854C38 17.4965 33 12 33 12ZM33.5556 24.5799V23.7465C34.1079 23.7459 34.6374 23.5262 35.028 23.1356C35.4185 22.7451 35.6382 22.2155 35.6389 21.6632H36.4722C36.4714 22.4365 36.1638 23.1779 35.617 23.7247C35.0702 24.2715 34.3289 24.579 33.5556 24.5799Z" fill="#346EF7"/>
</svg>
